<?xml version="1.0" encoding="UTF-8" standalone="no"?>
<!DOCTYPE svg PUBLIC "-//W3C//DTD SVG 1.1//EN" "http://www.w3.org/Graphics/SVG/1.1/DTD/svg11.dtd">
<svg width="100%" height="100%" viewBox="0 0 1980 2500" version="1.1" xmlns="http://www.w3.org/2000/svg" xmlns:xlink="http://www.w3.org/1999/xlink" xml:space="preserve" xmlns:serif="http://www.serif.com/" style="fill-rule:evenodd;clip-rule:evenodd;stroke-linejoin:round;stroke-miterlimit:2;">
    <g>
        <g transform="matrix(1.16394,-0.0597717,0.0358715,0.698532,-198.486,474.843)">
            <path d="M893.655,1244.88C800.99,1227.11 757.117,1293.92 831.788,1369.17C891.964,1429.82 1038.66,1421.4 1083.91,1392.82C1099.16,1383.18 1119.69,1402.02 1135.91,1394.86C1141.66,1392.32 1170.92,1380.45 1176.55,1377.62C1178.63,1376.57 1147.51,1371.57 1138.97,1369.23C1138.74,1369.17 1133.92,1367.85 1133.94,1367.77C1136.45,1358.29 1165.81,1346.63 1161.23,1338.9C1138.59,1300.66 1176.6,1243.51 1219.38,1245.04C1220.91,1245.1 1177.37,1243.28 1135.94,1244.37C1119.29,1244.81 1102.58,1244.06 1086,1242.48C1080.66,1241.97 1075.33,1241.35 1069.99,1240.78C1067.21,1240.48 1060.67,1242.57 1061.63,1239.94C1062.03,1238.87 1065.32,1238.31 1064.31,1237.79C1046.87,1228.93 893.655,1244.88 893.655,1244.88Z" style="fill:rgb(4,3,27);"/>
        </g>
        <g id="renard" transform="matrix(0.384203,0,0,0.384203,687.393,767.282)">
            <g id="corps">
                <g transform="matrix(1,0,0,1,5.09182,4.95438)">
                    <path d="M627.596,1348.19C643.442,1302.06 642.343,1255.09 645.652,1207.17C645.85,1204.31 647.782,1161.34 649.535,1160.1C666.184,1148.4 689.978,1157.27 706.369,1164.93C746.401,1183.65 782.305,1212.53 820.999,1234.13C833.579,1241.15 846.192,1248.1 859.093,1254.52C860.427,1255.19 870.638,1259.53 870.429,1260.22C863.697,1282.6 832.124,1298.88 811.881,1307.75C780.784,1321.38 746.651,1327.58 713.735,1335.32C687.072,1341.59 627.596,1348.19 627.596,1348.19Z" style="fill:rgb(220,132,3);"/>
                </g>
                <g transform="matrix(0.972913,-0.231171,0.228567,0.961954,-261.347,166.813)">
                    <path d="M436.853,1021.05C508.097,964.84 615.948,982.799 696.049,1007.35C718.781,1014.32 741.524,1021.26 764.241,1028.28C764.688,1028.41 765.133,1028.55 765.579,1028.69C766.596,1029.01 785.836,1034.57 785.708,1035.38C779.39,1075.16 723.317,1093.82 690.966,1104.98C667.973,1112.91 645.935,1127.85 621.613,1127.66C595.931,1127.47 566.187,1078.97 544.305,1078.84C525.24,1078.73 436.853,1021.05 436.853,1021.05Z" style="fill:rgb(242,145,4);"/>
                </g>
            </g>
            <g id="face-visage">
                <path d="M702.567,1212.06C702.567,1212.06 599.218,1111.9 588.78,1093.76C585.251,1087.63 582.199,1081.24 578.788,1075.05C577.705,1073.08 576.582,1071.13 575.429,1069.21C574.838,1068.22 572.516,1066 573.637,1066.26C593.905,1070.9 583.533,1073.83 609.145,1062.55C615.98,1059.54 622.004,1035.24 619.707,1029.74C606.952,999.21 602.757,985.457 590.82,954.484C587.009,944.596 653.81,959.384 676.985,967.04C699.412,974.448 723.587,964.984 746.64,970.395C770.124,975.907 791.141,963.208 815.197,963.188C823.062,963.182 830.926,963.047 838.791,963.003C841.257,962.99 843.723,962.986 846.189,963.011C847.733,963.026 852.257,962.535 850.822,963.107C844.707,965.545 838.504,967.74 832.243,969.774C830.164,970.449 828.078,971.106 825.991,971.757C825.168,972.014 822.664,972.442 823.522,972.527C854.761,975.643 884.563,967.034 912.739,969.024C914.133,969.122 910.515,970.715 909.403,971.561C906.822,973.525 904.241,975.48 901.599,977.362C900.372,978.236 896.45,979.751 897.934,980.008C906.751,981.531 916.639,980.384 925.501,979.603C928.498,979.339 931.483,979.017 934.475,978.693C936.056,978.521 939.486,976.587 939.215,978.153C938.634,981.506 932.597,986.606 935.794,987.772C944.914,991.098 958.082,989.447 967.606,988.534C970.946,988.214 974.277,987.79 977.591,987.264C979.27,986.998 982.717,984.68 982.611,986.376C982.01,996.041 993.42,1000.05 1002.86,1003.03C1026.78,1010.59 1049.02,1002.77 1071.24,993.969C1087.65,987.464 1119.21,978.331 1129.53,963.999C1135.72,955.389 1057.36,1030.43 1018.3,1069.22C1008.91,1078.55 1001.02,1088.65 993.056,1099.14C991.467,1101.23 989.876,1103.32 988.308,1105.43C987.696,1106.25 985.534,1107.55 986.493,1107.92C1007.92,1116.14 1038.13,1108.83 1059.81,1104.43C1067.93,1102.78 1076.07,1101.14 1084.13,1099.2C1086.81,1098.56 1089.48,1097.88 1092.13,1097.15C1093.42,1096.8 1096.94,1095.11 1095.98,1096.04C1082.3,1109.38 1065.96,1120.07 1049.25,1129.2C1043.83,1132.16 1038.31,1134.91 1032.75,1137.59C1030.65,1138.6 1028.56,1139.59 1026.47,1140.61C1025.78,1140.94 1023.65,1141.66 1024.41,1141.61C1032.65,1141.11 1040.99,1140.15 1049.08,1138.54C1053.05,1137.76 1057.02,1136.95 1060.97,1136.08C1062.84,1135.67 1068.22,1133.78 1066.56,1134.75C1051.99,1143.32 1036.44,1150.2 1020.91,1156.87C1015.79,1159.06 1010.64,1161.22 1005.52,1163.43C1003.5,1164.3 996.759,1167.03 997.397,1167.07C1008.08,1167.7 1019,1166.57 1029.55,1164.94C1033.31,1164.36 1037.05,1163.65 1040.78,1162.89C1042,1162.63 1044.18,1160.88 1044.44,1162.1C1044.48,1162.3 1032.55,1169.28 1025.12,1172.72C1003.61,1182.67 992.095,1192.2 972.647,1205.72C937.921,1229.86 891.463,1243.74 856.578,1255.34C832.7,1263.29 808.288,1262.09 782.523,1259.42C752.373,1256.31 725.883,1230.1 702.567,1212.06Z" style="fill:rgb(242,145,4);"/>
                <g transform="matrix(1,0,0,1,-9.29724,-1.43953)">
                    <path d="M1109.93,983.53C1121.49,975.315 1133,967.237 1145.04,959.715C1148.82,957.348 1152.61,954.979 1156.38,952.602C1158,951.586 1159.62,950.568 1161.24,949.556C1161.68,949.279 1162.89,948.313 1162.57,948.727C1150.19,964.74 1135.18,978.626 1121.14,993.118C1116.53,997.872 1111.98,1002.67 1107.42,1007.48C1105.82,1009.18 1104.21,1010.89 1102.61,1012.59C1101.87,1013.39 1099.32,1014.75 1100.38,1014.99C1105.58,1016.12 1114.17,1012.8 1119.29,1011.45C1121.53,1010.86 1123.72,1010.2 1125.93,1009.52C1126.61,1009.31 1128.38,1008.3 1127.96,1008.87C1119.87,1019.78 1107.5,1028.2 1097.02,1036.68C1093.45,1039.57 1089.87,1042.44 1086.25,1045.27C1084.53,1046.62 1078.91,1049.61 1081.07,1049.31C1086.93,1048.49 1092.74,1047.22 1098.45,1045.67C1103.36,1044.35 1106.65,1043.1 1106.41,1043.29C1097.71,1049.82 1088.69,1055.87 1079.72,1062.03C1076.55,1064.2 1073.38,1066.4 1070.26,1068.65C1068.65,1069.81 1063.52,1072.43 1065.5,1072.23C1068.56,1071.92 1071.62,1071.32 1074.62,1070.64C1074.79,1070.61 1075.25,1070.42 1075.12,1070.53C1065.96,1077.48 1010.83,1103.14 999.426,1110.62C988.026,1118.09 974.2,1103.35 978.492,1101.65C997.181,1094.25 998.802,1076.72 995.09,1053.69C988.29,1011.5 1072.05,999.588 1109.93,983.53" style="fill:white;"/>
                </g>
                <g transform="matrix(0.976141,-0.0330807,0.033469,0.987599,-7.66251,31.7016)">
                    <path d="M571.113,922.895C561.851,917.494 552.579,912.136 543.069,907.175C539.533,905.33 535.936,903.613 532.31,901.954C531.081,901.392 528.468,898.933 528.619,900.276C530.902,920.541 550.963,941.82 561.761,958.492C565.471,964.221 569.483,969.701 573.479,975.229C575.38,977.858 577.221,980.528 579.034,983.218C579.205,983.471 579.848,984.01 579.544,983.978C574.728,983.465 569.562,981.33 564.957,979.827C562.739,979.103 558.212,975.197 558.346,977.527C559.331,994.647 572.845,1013.79 582.262,1027.85C585.443,1032.6 588.793,1037.25 592.373,1041.7C593.566,1043.19 594.784,1044.65 596.009,1046.11C596.639,1046.87 598.806,1048.74 597.904,1048.36C589.569,1044.84 581.321,1039.35 573.609,1034.5C570.897,1032.79 568.208,1031.05 565.51,1029.33C564.081,1028.41 560.442,1025.09 561.212,1026.6C569.207,1042.31 581.725,1055.92 595.512,1066.78C601.205,1071.26 606.878,1075.71 612.44,1080.36C612.53,1080.44 614.774,1082.41 614.846,1082.35C625.705,1073.13 627.319,1046 639.111,1036.48C652.374,1025.77 689.826,1036.8 694.621,1022.1C700.225,1004.91 687.074,986.778 675.543,975.7C647.578,948.834 571.113,922.895 571.113,922.895Z" style="fill:white;"/>
                </g>
                <g transform="matrix(1.01359,-0.00675819,0.00687207,1.03067,-19.2198,-22.0933)">
                    <path d="M978.092,1029.69C996.945,1012.51 1020.06,1002.75 1044.86,995.136C1060.74,990.258 1074.02,979.237 1088.87,971.752C1102.78,964.739 1116.69,957.552 1131.13,951.69C1135.79,949.8 1140.48,948.005 1145.19,946.234C1146.79,945.632 1148.39,945.032 1149.99,944.431C1150.82,944.115 1152.99,942.722 1152.5,943.476C1144.18,956.424 1131.46,967.581 1119.31,976.88C1108.66,985.031 1097.03,992.194 1085.59,999.159C1076.21,1004.86 1066.67,1010.27 1057.28,1015.94C1044.73,1023.52 1031,1029.59 1020.45,1039.77C995.432,1063.9 975.477,1035.36 978.092,1029.69Z" style="fill:rgb(12,11,51);"/>
                </g>
                <g transform="matrix(0.997621,-0.0609763,0.0610473,0.998783,-44.8628,45.4185)">
                    <path d="M523.527,887.896C554.255,902.546 582.57,920.327 614.149,933.351C639.837,943.945 694.617,965.229 713.548,986.818C726.441,1001.52 699.866,1030.63 683.009,1026.62C665.634,1022.49 651.008,1006.67 637.674,995.667C602.228,966.42 573.078,931.684 541.288,898.848" style="fill:rgb(12,11,51);"/>
                </g>
                <g transform="matrix(1,0,0,1,5.99822,-8.54721)">
                    <path d="M762.442,1268.01C762.442,1268.01 724.891,1249.51 711.914,1236.33C707.463,1231.81 703.232,1227.04 699.321,1222.05C698.106,1220.49 694.14,1215.21 694.224,1215.21C700.628,1214.94 707.161,1216.17 713.402,1217.48C715.8,1217.98 718.196,1218.49 720.602,1218.96C721.33,1219.1 722.766,1220.06 722.794,1219.32C723.209,1208.31 716.849,1195.08 712.765,1184.93C711.238,1181.14 709.687,1177.35 708.237,1173.53C707.489,1171.56 704.087,1166.88 706.078,1167.58C713.063,1170.02 719.546,1174.75 726.146,1178.09C726.277,1178.16 728.817,1179.42 728.834,1179.39C730.455,1176.1 727.674,1168.46 726.789,1165.1C726.69,1164.72 726.106,1164.05 726.489,1163.97C735.148,1162.24 747.665,1174.66 757.081,1175.01C766.31,1175.36 772.993,1144.54 774.136,1138.27C774.805,1134.59 775.5,1130.92 776.362,1127.28C776.795,1125.45 776.861,1120.15 777.73,1121.81C804.301,1172.65 772.978,1219.64 762.442,1268.01Z" style="fill:rgb(220,132,3);"/>
                </g>
                <g transform="matrix(0.990425,0.138051,-0.138051,0.990425,186.396,-99.5296)">
                    <path d="M762.856,1259.38C778.98,1256.89 795.372,1254.79 811.7,1254.63C812.777,1254.62 826.476,1253.63 826.922,1254.69C827.227,1255.41 813.849,1263.79 812.575,1264.83C790.887,1282.7 762.475,1262.93 762.856,1259.38Z" style="fill:rgb(12,11,51);"/>
                </g>
                <path d="M862.027,1175.98C871.019,1167.31 887.863,1154.15 901.244,1155.49C906.842,1156.06 912.114,1159.55 916.419,1162.95C918.013,1164.21 919.586,1165.56 920.972,1167.05C921.5,1167.62 923.179,1168.92 922.404,1168.88C917.842,1168.67 910.7,1163.24 905.498,1162.33C888.207,1159.3 862.027,1175.98 862.027,1175.98Z" style="fill:rgb(12,11,51);"/>
                <g transform="matrix(-0.949018,-0.315223,-0.315223,0.949018,1950.34,324.513)">
                    <path d="M862.027,1175.98C871.019,1167.31 887.863,1154.15 901.244,1155.49C906.842,1156.06 912.114,1159.55 916.419,1162.95C918.013,1164.21 919.586,1165.56 920.972,1167.05C921.5,1167.62 923.179,1168.92 922.404,1168.88C917.842,1168.67 910.7,1163.24 905.498,1162.33C888.207,1159.3 862.027,1175.98 862.027,1175.98Z" style="fill:rgb(12,11,51);"/>
                </g>
            </g>
            <g id="queue-renard" transform="matrix(1,0,0,1,-1.71949,-0.359882)">
                <g id="queue" transform="matrix(1,0,0,1,-1.59952,0.719765)">
                    <path d="M624.726,1485.22C672.271,1489.18 717.074,1500.11 765.544,1495.55C820.729,1490.35 872.647,1469.98 928.762,1470.35C973.454,1470.64 1013.95,1492.45 1058.27,1496.79C1071.42,1498.08 1085.71,1496.13 1097.47,1489.96C1098.58,1489.38 1095.15,1488.45 1094.89,1487.23C1094.69,1486.3 1096.76,1487.57 1097.7,1487.7C1099.85,1487.99 1102.03,1488.11 1104.2,1488.16C1110.6,1488.31 1117,1487.89 1123.35,1487.18C1143.29,1484.93 1163.02,1480.08 1182.07,1473.85C1183.29,1473.45 1179.52,1474.09 1178.23,1474.15C1176.2,1474.25 1174.16,1474.26 1172.12,1474.22C1165.15,1474.06 1158.19,1473.31 1151.3,1472.33C1131.23,1469.48 1108.22,1465.35 1091.5,1453.22C1091.36,1453.12 1091.84,1453.21 1092.01,1453.2C1095.96,1453.12 1099.92,1453.06 1103.87,1452.88C1112.55,1452.49 1121.14,1451.44 1129.71,1449.99C1159.35,1444.98 1187.72,1433.26 1213.73,1418.4C1219.22,1415.26 1224.64,1412.01 1229.83,1408.4C1232.27,1406.71 1234.66,1404.96 1237,1403.14C1237.58,1402.69 1239.34,1402.21 1238.75,1401.76C1236.98,1400.41 1204.58,1402.64 1197.24,1399.18C1196.35,1398.76 1198.88,1398.08 1199.71,1397.53C1201.86,1396.1 1204.02,1394.69 1206.18,1393.26C1211.83,1389.5 1217.41,1385.65 1222.87,1381.62C1239.34,1369.46 1258.09,1354.61 1266.88,1335.48C1267.89,1333.26 1262.31,1337.18 1260.03,1338.03C1255.42,1339.75 1250.8,1341.41 1246.11,1342.91C1231.76,1347.51 1216.15,1351.83 1200.92,1351.5C1199.25,1351.47 1203.92,1350.02 1205.42,1349.28C1208.36,1347.82 1211.28,1346.34 1214.18,1344.82C1222.74,1340.32 1231.01,1335.31 1239.29,1330.31C1262.29,1316.44 1289.77,1310.58 1311.24,1294.6C1326.61,1283.16 1350.19,1265.81 1364.18,1252.63C1403.75,1215.36 1457.14,1110.88 1455.69,1112.61C1451.21,1117.97 1442.97,1123.73 1438.33,1128.96C1424.43,1144.59 1409.3,1144.92 1388.81,1149.3C1347.02,1158.23 1293.28,1179.54 1234.26,1183.91C1223.22,1184.72 1206.82,1183.78 1196.94,1178.44C1194.09,1176.9 1205.92,1172.26 1203.01,1170.86C1197.08,1168.01 1150.06,1183.15 1142.24,1185.62C1091.64,1201.58 1033.6,1221.43 981.081,1227.34C960.688,1229.63 988.881,1219.65 993.456,1213.37C993.636,1213.12 992.856,1213.49 992.556,1213.55C988.685,1214.32 984.814,1215.09 980.951,1215.89C972.656,1217.62 964.398,1219.54 956.177,1221.59C932.226,1227.57 908.292,1233.76 884.591,1240.67C813.261,1261.45 740.539,1292.64 675.595,1328.84C655.632,1327.29 635.677,1322.56 616.891,1315.5C610.703,1313.18 604.473,1310.95 598.161,1308.98C596.129,1308.35 594.089,1307.74 592.041,1307.16C590.862,1306.82 588.362,1305 588.484,1306.22C590.127,1322.54 605.744,1337.36 616.352,1348.81C619.829,1352.56 623.342,1356.28 626.919,1359.94C628.812,1361.87 635.016,1364.37 632.651,1365.69C614.335,1375.88 593.578,1379.54 573.011,1382.28C566.242,1383.18 559.468,1384.04 552.675,1384.74C550.332,1384.98 547.987,1385.2 545.64,1385.4C544.406,1385.5 540.953,1384.95 541.937,1385.7C557.434,1397.57 578.176,1402.93 596.843,1406.72C602.991,1407.97 609.185,1409 615.388,1409.93C617.689,1410.28 619.992,1410.61 622.298,1410.91C623.128,1411.02 625.563,1410.92 624.789,1411.24C600.805,1421.2 570.303,1420.96 544.797,1419.19C536.31,1418.6 527.831,1417.48 519.431,1416.13C516.54,1415.67 513.656,1415.16 510.776,1414.63C509.471,1414.39 506.565,1412.6 506.864,1413.89C509.461,1425.12 519.72,1435.69 527.644,1443.63C555.66,1471.73 624.726,1485.22 624.726,1485.22Z" style="fill:rgb(242,145,4);"/>
                </g>
                <g id="queue1" serif:id="queue" transform="matrix(1,0,0,0.996959,20.294,-402.311)">
                    <path d="M1036.94,1619.54C1065.24,1611.69 1093.33,1602.41 1119.44,1594.17C1127.27,1591.71 1174.29,1576.56 1180.21,1579.41C1183.13,1580.82 1171.3,1585.45 1174.14,1586.99C1184.03,1592.33 1200.43,1593.28 1211.47,1592.46C1270.49,1588.1 1324.23,1566.78 1366.02,1557.85C1386.5,1553.48 1401.64,1553.15 1415.53,1537.51C1420.17,1532.29 1428.41,1526.53 1432.9,1521.17C1434.35,1519.43 1380.95,1623.91 1341.39,1661.18C1327.4,1674.36 1303.82,1691.72 1288.44,1703.16C1266.97,1719.13 1239.5,1725 1216.5,1738.87C1208.22,1743.86 1199.95,1748.88 1191.39,1753.37C1188.49,1754.9 1185.57,1756.38 1182.63,1757.83C1181.13,1758.58 1176.46,1760.02 1178.13,1760.06C1193.36,1760.38 1208.97,1756.07 1223.32,1751.47C1228,1749.97 1232.63,1748.31 1237.23,1746.59C1239.52,1745.74 1245.1,1741.82 1244.08,1744.03C1235.3,1763.17 1216.55,1778.02 1200.08,1790.17C1194.62,1794.2 1189.03,1798.06 1183.38,1801.81C1181.23,1803.24 1179.07,1804.66 1176.92,1806.09C1176.09,1806.64 1173.55,1807.32 1174.45,1807.74C1181.79,1811.2 1214.19,1808.97 1215.95,1810.32C1216.55,1810.77 1214.79,1811.25 1214.2,1811.7C1211.87,1813.52 1209.47,1815.27 1207.04,1816.95C1201.84,1820.56 1196.42,1823.82 1190.93,1826.96C1164.92,1841.82 1136.56,1853.53 1106.91,1858.55C1098.35,1859.99 1089.76,1861.04 1081.08,1861.43C1077.12,1861.61 1073.17,1861.67 1069.21,1861.76C1069.04,1861.77 1068.56,1861.67 1068.7,1861.78C1085.42,1873.9 1108.44,1878.03 1128.5,1880.88C1135.4,1881.86 1142.36,1882.62 1149.33,1882.77C1151.36,1882.82 1153.4,1882.8 1155.44,1882.71C1156.72,1882.65 1160.5,1882.01 1159.28,1882.41C1140.22,1888.63 1120.5,1893.49 1100.56,1895.73C1094.21,1896.45 1087.8,1896.87 1081.41,1896.72C1079.24,1896.67 1077.06,1896.55 1074.9,1896.25C1073.96,1896.12 1071.9,1894.86 1072.09,1895.79C1072.35,1897.01 1075.79,1897.93 1074.68,1898.51C1062.92,1904.69 1048.62,1906.63 1035.48,1905.35C1010.65,1902.91 987.03,1895.01 963.195,1888.47C990.801,1884.07 1018.22,1877.8 1041.4,1866.2C1042.9,1865.45 1038.12,1865.47 1036.48,1865.11C1033.17,1864.38 1029.85,1863.68 1026.52,1863.02C1016.45,1861.03 1006.33,1859.27 996.229,1857.43C970.887,1852.8 944.849,1847.79 920.815,1838.42C913.717,1835.65 899.453,1831.37 894.832,1824.92C894.338,1824.23 896.418,1824.32 897.217,1824.04C899.482,1823.23 901.759,1822.46 904.034,1821.68C911.023,1819.28 918.003,1816.87 924.896,1814.2C951.651,1803.86 983.982,1790.27 1000.9,1765.94C1001.55,1765.01 998.618,1766.09 997.476,1766.15C994.2,1766.33 990.92,1766.45 987.64,1766.55C979.238,1766.79 970.837,1766.94 962.432,1766.95C951.57,1766.97 940.708,1766.82 929.848,1766.63C914.4,1766.37 898.118,1767.01 882.843,1764.77C882.756,1764.76 883.014,1764.72 883.099,1764.7C887.838,1763.38 892.609,1762.18 897.374,1760.96C906.709,1758.57 916.072,1756.29 925.357,1753.7C944.604,1748.35 998.877,1733.66 1011.04,1721.17C1012.58,1719.59 1006.63,1721.28 1004.42,1721.29C998.594,1721.32 992.769,1721.27 986.945,1721.09C971.296,1720.6 955.048,1719.78 939.898,1715.52C938.539,1715.13 942.569,1714.6 943.907,1714.15C947.374,1712.98 950.848,1711.84 954.319,1710.68C964.333,1707.35 974.312,1703.95 984.175,1700.19C1009.79,1690.43 1035.96,1680.39 1059.89,1666.91C1065.37,1663.83 1080.16,1657.07 1083,1650.59C1084.14,1648 1077.34,1650.69 1074.51,1650.75C1068.84,1650.87 1063.18,1651.03 1057.51,1651.15C1040.05,1651.5 1020.27,1652.88 1003.48,1647.12C1001.45,1646.43 1007.01,1644.67 1008.77,1643.44C1012.4,1640.9 1015.98,1638.3 1019.45,1635.55C1024.79,1631.32 1031.43,1625.78 1036.94,1619.54Z" style="fill:white;"/>
                </g>
                <g id="queue2" serif:id="queue" transform="matrix(1.00092,0,0,1.01218,22.1724,-381.943)">
                    <path d="M599.31,1720.49C596.767,1717.84 594.254,1715.16 591.759,1712.47C581.151,1701.02 565.535,1686.2 563.892,1669.88C563.769,1668.66 566.269,1670.48 567.448,1670.82C569.497,1671.4 571.536,1672.01 573.569,1672.64C579.88,1674.61 586.11,1676.84 592.298,1679.16C611.085,1686.23 631.039,1690.95 651.003,1692.5C715.946,1656.31 788.668,1625.12 859.998,1604.33C883.7,1597.42 907.634,1591.23 931.585,1585.26C939.806,1583.2 948.063,1581.28 956.358,1579.55C960.222,1578.75 964.092,1577.98 967.963,1577.21C968.263,1577.15 969.044,1576.79 968.863,1577.03C964.288,1583.31 936.095,1593.29 956.488,1591C1009.01,1585.09 1067.05,1565.24 1117.64,1549.28C1125.46,1546.81 1172.49,1531.67 1178.41,1534.52C1181.33,1535.92 1169.5,1540.56 1172.34,1542.1C1182.23,1547.44 1198.63,1548.38 1209.67,1547.57C1268.69,1543.2 1322.43,1521.89 1364.22,1512.96C1384.7,1508.58 1399.84,1508.25 1413.73,1492.62C1418.37,1487.39 1426.62,1481.63 1431.1,1476.28C1431.99,1475.21 1412.4,1513.79 1388.02,1552.46C1383.57,1553.34 1378.85,1554.17 1373.81,1555.25C1332.02,1564.17 1278.29,1585.49 1219.27,1589.85C1208.23,1590.67 1191.82,1589.72 1181.94,1584.38C1179.09,1582.85 1190.92,1578.21 1188.01,1576.81C1182.08,1573.95 1135.06,1589.1 1127.24,1591.57C1076.64,1607.53 1018.6,1627.38 966.085,1633.28C945.692,1635.58 973.885,1625.6 978.461,1619.32C978.641,1619.07 977.861,1619.44 977.561,1619.5C973.69,1620.26 969.819,1621.03 965.956,1621.84C957.66,1623.57 949.403,1625.49 941.182,1627.54C917.231,1633.52 893.297,1639.71 869.595,1646.62C798.266,1667.4 725.543,1698.59 660.6,1734.79C640.637,1733.24 620.682,1728.51 601.895,1721.45C601.035,1721.13 600.173,1720.8 599.31,1720.49Z" style="fill:rgb(220,132,3);fill-opacity:0.31;"/>
                </g>
            </g>
            <g id="cuisse-renard">
                <g transform="matrix(1,0,0,1,-0.159952,0.215929)">
                    <path d="M448.819,1006.38C448.819,1006.38 605.927,1094.62 645.809,1139.42C685.902,1184.46 712.488,1253.82 687.198,1313.41C675.76,1340.36 652.216,1361.29 640.022,1388.49C628,1415.3 642.689,1449.07 629.762,1464.61C591.308,1510.83 504.106,1464.34 461.988,1446.55C448.419,1440.82 435.854,1433.41 423.384,1425.6C408.408,1416.23 393.974,1406.14 381.118,1393.98C345.237,1360.04 319.11,1323.63 313.67,1273.04C308.444,1224.43 318.529,1176.76 338.46,1132.47C356.839,1091.62 407.124,1026.28 448.819,1006.38Z" style="fill:rgb(242,145,4);"/>
                </g>
                <g transform="matrix(0.758475,0,0,0.924073,44.3108,-409.867)">
                    <path d="M557.912,1611.04C576.423,1590.13 596.861,1572.05 615.57,1563.12C615.57,1563.12 769.181,1654.74 812.559,1696.16C865.774,1746.98 873.007,1816.9 845.672,1873.53C833.308,1899.15 828.13,1765.98 788.037,1720.94C748.155,1676.14 591.047,1587.9 591.047,1587.9C580.34,1593.01 569.066,1601.12 557.912,1611.04Z" style="fill:rgb(220,132,3);fill-opacity:0.89;"/>
                </g>
            </g>
        </g>
    </g>
</svg>
